<svg xmlns="http://www.w3.org/2000/svg" viewBox="0 0 320 320">
	<path d="M169.4 194.4a15 15 0 0 0 21.2 21.2l45-44.99c.35-.35.68-.72 1-1.1.14-.17.25-.35.38-.52.17-.22.34-.43.5-.66l.38-.64.37-.62c.12-.22.21-.45.32-.67.1-.22.21-.43.3-.66.1-.22.17-.44.25-.66.09-.24.18-.48.25-.72.07-.23.12-.45.17-.68.07-.25.14-.5.19-.75l.12-.78.1-.67c.04-.48.07-.97.07-1.46v-.04c0-.49-.03-.97-.08-1.46-.02-.22-.06-.44-.1-.66-.03-.26-.06-.53-.11-.79-.05-.25-.12-.5-.18-.74-.06-.23-.11-.46-.18-.68a8.52 8.52 0 0 0-.25-.71c-.08-.23-.15-.46-.24-.68l-.3-.64-.34-.69c-.1-.2-.23-.4-.35-.6l-.4-.66c-.15-.22-.3-.42-.47-.63l-.4-.55c-.3-.36-.62-.7-.95-1.04l-.05-.05-45-45a15 15 0 0 0-21.2 21.2l19.39 19.4H15a15 15 0 0 0 0 30h173.78l-19.39 19.4z"/>
	<path d="M305 25H115a15 15 0 0 0-15 15v60a15 15 0 0 0 30 0V55h160v210H130v-45a15 15 0 0 0-30 0v60a15 15 0 0 0 15 15h190a15 15 0 0 0 15-15V40a15 15 0 0 0-15-15z"/>
</svg>