<svg xmlns="http://www.w3.org/2000/svg" viewBox="0 0 320 320">
	<path d="M51.21 175H225a15 15 0 0 0 0-30H51.2l19.4-19.4a15 15 0 1 0-21.22-21.2l-45 45c-.34.34-.68.71-1 1.1l-.38.51c-.16.22-.33.44-.48.67-.14.2-.26.42-.4.63l-.36.62c-.12.22-.21.45-.32.67l-.3.66c-.1.22-.17.44-.25.67-.09.24-.18.47-.25.72-.07.22-.12.45-.17.67-.07.25-.14.5-.19.75l-.12.78-.1.67c-.04.49-.07.97-.07 1.46v.04c0 .5.03.98.08 1.46.02.22.06.44.1.66.03.27.06.53.11.8l.18.74.18.68c.07.24.16.47.25.7.08.23.15.46.24.68l.3.65c.11.23.21.46.33.68l.36.6c.13.22.25.45.4.66.14.22.3.42.46.64l.41.54c.3.36.62.71.95 1.05l.04.05 45 45a14.96 14.96 0 0 0 21.21 0 15 15 0 0 0 0-21.21L51.22 175z"/>
	<path d="M305 25H115a15 15 0 0 0-15 15v60a15 15 0 0 0 30 0V55h160v210H130v-45a15 15 0 0 0-30 0v60a15 15 0 0 0 15 15h190a15 15 0 0 0 15-15V40a15 15 0 0 0-15-15z"/>
</svg>